<svg xmlns="http://www.w3.org/2000/svg" width="24" height="24" fill="none" id="asm"><path fill="#343A40" fill-rule="evenodd" d="M4.25 3c0-.966.784-1.75 1.75-1.75h9a.75.75 0 0 1 0 1.5H6a.25.25 0 0 0-.25.25v9a.75.75 0 0 1-1.5 0V3ZM21 7.25a.75.75 0 0 1 .75.75v13A1.75 1.75 0 0 1 20 22.75H7a.75.75 0 0 1 0-1.5h13a.25.25 0 0 0 .25-.25V8a.75.75 0 0 1 .75-.75Z" clip-rule="evenodd"></path><path fill="#FFC107" fill-rule="evenodd" d="M7.75 16c0-.966.784-1.75 1.75-1.75h2a.75.75 0 0 1 0 1.5h-2a.25.25 0 1 0 0 .5h1a1.75 1.75 0 1 1 0 3.5h-2a.75.75 0 0 1 0-1.5h2a.25.25 0 1 0 0-.5h-1A1.75 1.75 0 0 1 7.75 16zm-5.5 0c0-.966.784-1.75 1.75-1.75h1c.966 0 1.75.784 1.75 1.75v3a.75.75 0 0 1-1.5 0v-1.25h-1.5V19a.75.75 0 0 1-1.5 0v-3zm1.5.25h1.5V16a.25.25 0 0 0-.25-.25H4a.25.25 0 0 0-.25.25v.25zm10.013-1.961a.75.75 0 0 1 .837.261l.9 1.2.9-1.2a.75.75 0 0 1 1.35.45v4a.75.75 0 1 1-1.5 0v-1.75l-.15.2a.75.75 0 0 1-1.2 0l-.15-.2V19a.75.75 0 1 1-1.5 0v-4a.75.75 0 0 1 .513-.711z" clip-rule="evenodd"></path><path fill="#343A40" fill-rule="evenodd" d="M14.713 1.307a.75.75 0 0 1 .817.163l6 6A.75.75 0 0 1 21 8.75h-5A1.75 1.75 0 0 1 14.25 7V2a.75.75 0 0 1 .463-.693Zm1.037 2.504V7c0 .138.112.25.25.25h3.19l-3.44-3.44Z" clip-rule="evenodd"></path></svg>